PathFileType	4	(X/Y/Z)	59_1_38_p0_0-245_filt_butterworth.trc
DataRate	CameraRate	NumFrames	NumMarkers	Units	OrigDataRate	OrigDataStartFrame	OrigNumFrames
41.0	41.0	7	27	m	41.0	61	245
Frame#	Time	RHip			RKnee			RAnkle			RBigToe			RSmallToe			RHeel			LHip			LKnee			LAnkle			LBigToe			LSmallToe			LHeel			Neck			Head			Nose			RShoulder			RElbow			RWrist			RThumb			RIndex			RPinky			LShoulder			LElbow			LWrist			LThumb			LIndex			LPinky			
		X1	Y1	Z1	X2	Y2	Z2	X3	Y3	Z3	X4	Y4	Z4	X5	Y5	Z5	X6	Y6	Z6	X7	Y7	Z7	X8	Y8	Z8	X9	Y9	Z9	X10	Y10	Z10	X11	Y11	Z11	X12	Y12	Z12	X13	Y13	Z13	X14	Y14	Z14	X15	Y15	Z15	X16	Y16	Z16	X17	Y17	Z17	X18	Y18	Z18	X19	Y19	Z19	X20	Y20	Z20	X21	Y21	Z21	X22	Y22	Z22	X23	Y23	Z23	X24	Y24	Z24	X25	Y25	Z25	X26	Y26	Z26	X27	Y27	Z27	
61	1.4878048780487805	0.3335491631386438	0.4194694804778898	0.9516120827564126	0.3031993788717928	0.5702862424113565	1.4332306521671097	0.27896792085110667	0.7741749815064848	1.8981161252494445	0.2712690270106489	0.538826435507113	1.9337370337905422	0.3330705664628053	0.599593027614618	1.9399470940141732	0.2729632593364935	0.843297416256783	1.9647727641461579	0.11166142907454225	0.44190533595906645	0.9789454112085456	0.1268418640313589	0.5749046000374824	1.4371968404214586	0.1251246239684185	0.7390053033604898	1.887286248791296	0.13049788085412645	0.547933737552946	1.9243877998873695	0.07530528584113283	0.6050770770449874	1.9232353910507711	0.14469075610548882	0.806830379281532	1.9449173759526308	0.16524285973979919	0.3125706495127178	0.3872076976889116	0.1746882434638655	0.1672423029709101	0.14952212732836476	0.18442395219439786	0.13397223890363158	0.30514934112720093	0.33937339768581104	0.3755405227435411	0.45703189547357415	0.44037116221610445	0.3889913764001813	0.7416043307160387	0.5554267258262928	0.34844708232073257	1.0131631038555373	0.6373896538882453	0.3343087448351946	1.1009727899269226	0.6883980343012772	0.261517764770203	1.0887875974626893	0.6879666193499143	0.2693793560067493	1.0668167484277782	0.011122591820756431	0.34800223794891283	0.49296414437098107	0.01621535574159751	0.40737686013050844	0.7904079491371658	0.030196875408139263	0.44147510327543005	1.088882673298514	0.09876622390813328	0.3752053696404215	1.1830551653370311	0.08452455735007693	0.36256861639214466	1.2145913169385028	0.03313625065286387	0.4381014236359645	1.2243223610759317
62	1.5121951219512195	0.3345392778384181	0.4233366064239386	0.9530942443131762	0.3031981705385899	0.5702188301856762	1.4332001529685165	0.27916151095160974	0.7748519006560799	1.8980031300524078	0.2706375760082876	0.5385100082349941	1.9327473410080394	0.3332469866613737	0.6001952010298718	1.9399943912450137	0.2735589115014102	0.8439327296577722	1.9650109564634506	0.11523066929482992	0.4418125596286446	0.9787567967073103	0.12820524901466498	0.5741463232955585	1.437196356626947	0.12559906715285543	0.7382388328833971	1.8841608197900561	0.1303965849073073	0.5477318544441885	1.9242940170745024	0.07531372984769248	0.6050488794186254	1.923219285633949	0.1447468735536077	0.8066859006541387	1.9449084612392076	0.16525072613841582	0.31257290368774626	0.38723518767406545	0.17468140120749237	0.16720011662461226	0.14945802444971698	0.18443115514860492	0.1338414289206739	0.3051846284417801	0.33936815306092405	0.37549575286879344	0.45700790908142075	0.44041050043517505	0.3883507720508739	0.7415476846575263	0.5566117988947463	0.34852722689198085	1.013158067647638	0.637302243719414	0.33432175735613356	1.100834396418503	0.6885799319277133	0.26191270598340627	1.088874534410697	0.687860889406545	0.26963331994318424	1.0679992973366628	0.010992444123111891	0.3473562205840412	0.4929860965548559	0.016319633517082405	0.40740628880609525	0.7903513618585833	0.03257384429991415	0.4354325627196108	1.0878706230518904	0.09900812898184365	0.37571877501975537	1.183307023067826	0.08422370705114936	0.36311307654346114	1.2155896570053046	0.033528377799202924	0.43812449721229835	1.2241669009880405
63	1.5365853658536586	0.3345903498798725	0.42265411621572124	0.9530124295380947	0.3030008867562863	0.5700496081546137	1.4331265570153937	0.27920638761008776	0.7747318728483806	1.8980664232520212	0.2739517072490639	0.5389639061862385	1.9348394354770488	0.3334477594110329	0.6003857021911716	1.940076461623432	0.27390396065223144	0.8429449342867937	1.9646720252423995	0.11745697581176424	0.4415772106536226	0.9786437034378832	0.12847818008498935	0.5738516892610726	1.4372036584700874	0.12588803068320492	0.7377652528404742	1.882301913217317	0.13038807940339017	0.5477283859663149	1.9242901586710524	0.07531706681994396	0.6049927200068426	1.923192461884794	0.14471458886367097	0.8063180225744756	1.9446804502675088	0.16526212568987353	0.31255673718012345	0.3872654887303858	0.17467995083476537	0.16718005855266121	0.14947637082071086	0.184428735859607	0.13376052092155588	0.3051866296674456	0.33936365171310606	0.37541428516748043	0.4569630331431557	0.4403593460198423	0.38826786722430184	0.7415035478257318	0.5566504422578342	0.34878727422852424	1.0132188624438747	0.6369127683179402	0.3346069379736456	1.101002971574311	0.6884689507409986	0.26182314367180964	1.088863448350499	0.6879172673243261	0.26913592044996215	1.0680221608309262	0.010978958870516548	0.34725817657618274	0.49297896817907083	0.01625932340360298	0.40743661828592226	0.7911011435997231	0.033961526745622805	0.431769037324837	1.0872851493175733	0.09913210343365203	0.37528172272169236	1.18293602428576	0.08437118679566862	0.3633347858983761	1.2155954139748328	0.03340221415060067	0.43807494213583986	1.2241357700900442
64	1.5609756097560976	0.3347188327106437	0.4209719614828179	0.9524915879700042	0.30304026068011863	0.5700342847233734	1.4330816792834804	0.2792988235083954	0.7740508192920194	1.8992697649269452	0.2769701783534947	0.5388143311841559	1.9376445796223263	0.3335230682247813	0.6002178595776625	1.9401556822050758	0.2737380392637978	0.8387682811709632	1.9630568476989558	0.11757387949909837	0.44156510074420185	0.9786519230432887	0.1284797084054618	0.5739932837909618	1.437139132062259	0.12594904662664377	0.737706955270649	1.8822004541218558	0.13051208620282057	0.5479968980262482	1.9243943414219045	0.07531258396094062	0.6049295879222667	1.9231803161560252	0.14468489207609403	0.8060652080593292	1.944653699938422	0.1652693801507309	0.3125475970925552	0.38731974642704353	0.17469372778880837	0.16718635736676324	0.14954226687965327	0.1844124011024625	0.1337488056495753	0.30519551472632	0.3393578778292881	0.37535004915628317	0.4569120656584109	0.4403381387828383	0.38835707526809854	0.7414756714552573	0.5564881199219516	0.34911585684253876	1.013243558126603	0.6368116402831254	0.33468495405387866	1.1010248756480132	0.688344669762518	0.26163765377505865	1.088829887940958	0.6880777404210806	0.2683176851078892	1.0674987198724855	0.011005099168361242	0.3473310154582906	0.49297210865468816	0.015930003297475303	0.40726518457006	0.7928867626011739	0.034019915993809165	0.4316461431556225	1.0872899819483552	0.09905467559032595	0.3744677698158376	1.182561263873246	0.08443563200012054	0.36335093340835717	1.2154270459425365	0.03335316500000675	0.43807141763786983	1.224061371727107
65	1.5853658536585369	0.3348528920923679	0.42064330548710605	0.9525081146619283	0.3043077638159859	0.5706829740426853	1.433210318371786	0.2793834543878575	0.7737013941198773	1.9013724302299408	0.2769821248174762	0.5384920472973679	1.9382383007064394	0.3333997860756553	0.5999248054228994	1.9401584625811361	0.27371983633994357	0.8363785531771339	1.9620857904773445	0.11728320336727575	0.44157856652634747	0.9786718260662728	0.1286077290537713	0.5739333838533203	1.4370451428246889	0.1258906101396263	0.7376980629563583	1.882159137990012	0.13151862667926367	0.5520325928778678	1.9261188033477237	0.07529954529844309	0.604931262872836	1.9232095633638608	0.14472388061476293	0.8062028768359286	1.9447543807999799	0.16526679870331484	0.31255910723558233	0.38736059586567756	0.17470767352821429	0.16716725336162697	0.1495940799058863	0.1843988916091746	0.13374716680285034	0.30521289680268004	0.3393349470491361	0.3753304310698892	0.45685265292146865	0.4403421089968879	0.3883228204711774	0.7412893643009887	0.5565525936541884	0.3491923779351403	1.0132427564044273	0.6368261982409845	0.33458801419213535	1.1009696947186276	0.6883301626218581	0.2616630066649607	1.0888498797444692	0.6882772249703425	0.26783266859677407	1.067517457595931	0.011018972105325545	0.3473745149653034	0.4929886773437412	0.015883471966403214	0.4081879208786494	0.795014216906284	0.03380658642144238	0.4322267367541897	1.0873887713272854	0.0989009579904555	0.3740730258866197	1.1825261571407872	0.08440646785284017	0.3634166918468662	1.2155699826438986	0.03337564191218303	0.4381200187615112	1.2240665892910778
66	1.6097560975609757	0.33483826894198043	0.4212736606666501	0.9536917738640167	0.306436753295445	0.5718216647669566	1.4334769456569312	0.2793115527572115	0.7741779755029381	1.902433746589868	0.2760751066079208	0.539660717823463	1.9371632968997177	0.33322858167809627	0.5999795388598832	1.9401217240615838	0.27485319587321544	0.8399556349225099	1.9634732924887957	0.11735236224561778	0.4415989335686336	0.9786855709701414	0.12864958240468186	0.5739648997093172	1.4370198976853683	0.12559671220454197	0.7377830180952025	1.8822673540814319	0.13309866511874013	0.5587298982219409	1.9289986116766997	0.07529573338775539	0.6049949470625035	1.9232734514198042	0.14485387738665148	0.8064578033735392	1.9448801314783153	0.16525660466914166	0.31257216541034955	0.387359553221136	0.17470919842438182	0.16710674231290654	0.14962101893700888	0.18438680749732328	0.13370521567717186	0.30522080151322417	0.3393081673760704	0.3753316327721826	0.4568053341172792	0.44036959004260345	0.3879996745510634	0.7412602680443329	0.5566754924516929	0.3490792971829153	1.0132257272374632	0.6368963566736549	0.3346178448520019	1.1009751052766326	0.6883717476690904	0.26184441325609004	1.0889036955045568	0.6884608483445303	0.2683956676204206	1.0696000618943053	0.011035705329476737	0.3474234382428164	0.4930340359749959	0.01687664142041874	0.4124433101627857	0.7962383244156435	0.03378658852469891	0.4321599647297759	1.0873378089611807	0.09883787350655246	0.37412263235804866	1.182679971391498	0.0843936192918049	0.3633561175113963	1.2155441740101711	0.03334765836672007	0.43811903479391473	1.2243105468677205
67	1.6341463414634143	0.33479935584050446	0.42176426150723845	0.955560561182677	0.30774036037646363	0.5724475381750005	1.433733748600409	0.27919482430419856	0.7747931505471598	1.9013047023852274	0.27582176927242724	0.5415258054521053	1.9356532216432185	0.3332398015556425	0.6004559204059967	1.9401201259985494	0.2767465703887514	0.8444009781399905	1.9652144892258514	0.11750967653006572	0.4416916670394246	0.9787238114551271	0.1284077990361974	0.5746133335650274	1.4371158934621022	0.12510597298313444	0.7384998078395482	1.884325707818698	0.13399174495485747	0.5626335351282532	1.9306890026945585	0.075334442533014	0.6050439145759606	1.92332796268515	0.14497119119325505	0.8065752676989073	1.9449946295639013	0.16524128570230928	0.31257655504033954	0.38736384140318836	0.1747087690209405	0.16706639142950525	0.14966864721549747	0.1843687325277174	0.13359264564188544	0.305218890256273	0.3392993231878506	0.3753134228577031	0.4567808719275032	0.44043182183093765	0.3875796687011369	0.7422279246962771	0.5567009791088997	0.34897573870380183	1.013191083799192	0.6370431922553583	0.3347390282170296	1.1009554193147464	0.6884524393114797	0.26205147230778736	1.0889409954704263	0.688584526734842	0.2697486105410325	1.0731733471074476	0.011050576775495927	0.34748082546667347	0.49308036206804307	0.01848586536435303	0.41844386567882985	0.795945497297756	0.03382565098495058	0.43191295044126554	1.0872471983654788	0.0988405493184543	0.37460500130827445	1.1824374258862564	0.08458208991260173	0.36288838212756225	1.214492309165293	0.033395663887156375	0.4379287930240717	1.2242880649232317
